# xmcd
#
# Track frame offsets: 
#        150
#        13692
#        26957
#        38250
#        48657
#        59742
#        70910
#        83165
#        93772
#        103600
#        114285
#        124307
#
# Disc length: 1812 seconds
#
# Revision: 3
# Processed by: cddbd v1.5.2PL0 Copyright (c) Steve Scherf et al.
# Submitted via: ExactAudioCopy v0.99pb4
#
DISCID=9b07120c
DTITLE=Ben E. King And The Drifters - Dance With Me
DYEAR=1995
DGENRE=Blues
TTITLE0=Stand By Me
TTITLE1=Spanish Harlem
TTITLE2=First Taste Of Love
TTITLE3=On The Horizon
TTITLE4=This Magic Moment
TTITLE5=Save The Last Dance For Me
TTITLE6=Lonely Winds
TTITLE7=Oh My Love
TTITLE8=There Goes My Baby
TTITLE9=True Love True Love
TTITLE10=Dance With Me
TTITLE11=Hey Senorita
EXTD=YEAR: 1988
EXTT0=
EXTT1=
EXTT2=
EXTT3=
EXTT4=
EXTT5=
EXTT6=
EXTT7=
EXTT8=
EXTT9=
EXTT10=
EXTT11=
PLAYORDER=
